<?xml version="1.0" encoding="UTF-8"?>
<svg version="1.1" xmlns="http://www.w3.org/2000/svg" width="660" height="660">
<path d="M0 0 C2.40332031 1.79663086 2.40332031 1.79663086 4.703125 3.96484375 C5.99162354 5.1720105 5.99162354 5.1720105 7.30615234 6.40356445 C8.19512207 7.26038818 9.0840918 8.11721191 10 9 C10.89283691 9.85489014 11.78567383 10.70978027 12.70556641 11.59057617 C15.45090772 14.24709617 18.16597002 16.93149454 20.875 19.625 C22.25945312 20.97851562 22.25945312 20.97851562 23.671875 22.359375 C31.85550009 30.49555878 36.07940802 36.47915313 36.25 48.25 C35.99872123 65.43360216 23.82789108 74.32559011 12.33493042 85.77859497 C11.17699219 86.9362526 10.01927658 88.09413293 8.86176217 89.25221431 C5.70540774 92.40886213 2.54596539 95.5624029 -0.61401439 98.71542096 C-4.03099591 102.1259943 -7.44504255 105.53950332 -10.85943604 108.95266724 C-16.7688781 114.85923015 -22.68009086 120.76401607 -28.59247208 126.66763687 C-37.1487838 135.21136414 -45.70182879 143.75835583 -54.25399803 152.30622946 C-68.14202158 166.18719442 -82.0319121 180.06628949 -95.92333984 193.94384766 C-96.75378629 194.77346629 -97.58423274 195.60308493 -98.43984424 196.45784353 C-104.33484667 202.34694522 -110.22991593 208.23598002 -116.125 214.125 C-122.86251425 220.85558466 -129.59999727 227.58620059 -136.33740234 234.31689453 C-137.16743877 235.14610283 -137.9974752 235.97531113 -138.85266425 236.82964696 C-152.69628239 250.65957558 -166.53793416 264.49147064 -180.37818611 278.32476795 C-188.90867066 286.85077503 -197.44092832 295.37500033 -205.9754896 303.89692663 C-211.82152115 309.73452711 -217.6657795 315.5738988 -223.50865068 321.4146625 C-226.87833845 324.78300664 -230.24884859 328.15051717 -233.62157059 331.51582336 C-236.71147569 334.59896018 -239.79904493 337.68441665 -242.88480924 340.77169763 C-243.99885166 341.88546954 -245.1137391 342.99839703 -246.22957577 344.11037137 C-251.53978783 349.4030608 -256.7826756 354.71132309 -261.64969879 360.42056775 C-263.42305886 362.49484723 -265.30140322 364.4492789 -267.21606445 366.39306641 C-268.33806999 367.5343248 -268.33806999 367.5343248 -269.48274231 368.69863892 C-270.26832016 369.4916037 -271.05389801 370.28456848 -271.86328125 371.1015625 C-273.11131783 372.3617067 -273.11131783 372.3617067 -274.38456726 373.64730835 C-276.13535529 375.41184514 -277.88764274 377.17489532 -279.64135742 378.93652344 C-281.42124689 380.72796324 -283.19665308 382.52386864 -284.9675293 384.32421875 C-287.54793235 386.94746497 -290.14149274 389.5570469 -292.73828125 392.1640625 C-293.51778641 392.96107574 -294.29729156 393.75808899 -295.10041809 394.57925415 C-303.94988758 403.39454399 -311.70439598 408.14886169 -324.25 408.3125 C-324.97574219 408.34150391 -325.70148438 408.37050781 -326.44921875 408.40039062 C-334.79412122 408.49707844 -340.53753967 404.886539 -346.40339661 399.17803955 C-347.00890854 398.56756775 -347.61442047 397.95709595 -348.23828125 397.328125 C-348.885728 396.68687683 -349.53317474 396.04562866 -350.20024109 395.38494873 C-351.55718409 394.03506647 -352.9090834 392.68009675 -354.25610352 391.3203125 C-356.30877117 389.25375406 -358.38434739 387.21236766 -360.46289062 385.171875 C-361.78530657 383.85041019 -363.10631912 382.52753916 -364.42578125 381.203125 C-365.04141434 380.60075012 -365.65704742 379.99837524 -366.29133606 379.37774658 C-372.71503824 372.81392508 -374.93167519 365.2805174 -375.25 356.1875 C-375.11879557 347.33120089 -371.45499754 341.72055697 -366 335 C-365.38125 334.154375 -364.7625 333.30875 -364.125 332.4375 C-362.34653382 330.39749468 -360.65284612 328.80765149 -358.59765625 327.07421875 C-352.89293936 322.12355139 -347.62734189 316.73473219 -342.3125 311.375 C-341.28344047 310.34090959 -340.25414493 309.30705398 -339.22460938 308.2734375 C-337.33227605 306.37302143 -335.4415879 304.471024 -333.55200195 302.56787109 C-331.03980228 300.04004978 -328.52046901 297.51957663 -326 295 C-324.86167276 293.86171591 -323.72336885 292.72340849 -322.58508301 291.58508301 C-299.86169434 268.86169434 -277.13830566 246.13830566 -254.41491699 223.41491699 C-253.82779938 222.82775406 -253.24068176 222.24059113 -252.63577271 221.63563538 C-251.15378957 220.15377666 -249.67134297 218.67238148 -248.18884277 217.19104004 C-246.65558299 215.65624109 -245.12827871 214.11548019 -243.60546875 212.5703125 C-239.89694558 208.81985127 -236.20881394 205.1039129 -232.1875 201.6875 C-222.87566199 193.70051699 -214.29942382 184.68998812 -206.53125 175.20703125 C-204.05896705 172.22845631 -201.5686642 169.55681128 -198.59838867 167.06884766 C-192.55956367 161.8384478 -186.99582889 156.11935428 -181.36328125 150.4609375 C-180.15380013 149.2495866 -178.94409456 148.03845978 -177.73417664 146.82754517 C-174.56929622 143.65887283 -171.40742879 140.48721097 -168.24621582 137.31488037 C-165.03249841 134.09091786 -161.8159396 130.86979301 -158.59960938 127.6484375 C-153.40569422 122.44576982 -148.21346437 117.2414277 -143.02360535 112.03471375 C-140.01862202 109.02025045 -137.0103851 106.00906848 -134 103 C-133.41476562 102.41476562 -132.82953125 101.82953125 -132.2265625 101.2265625 C-120 89 -120 89 -117.89013672 86.89212036 C-114.24928945 83.25120091 -110.6175449 79.60121396 -106.984375 75.95263672 C-98.91861723 67.85418214 -90.84779123 59.76079415 -82.77398682 51.67036247 C-77.89217669 46.77822485 -73.0122761 41.88420973 -68.13671875 36.98583984 C-63.41524336 32.24228517 -58.68855107 27.50398763 -53.95861816 22.76886368 C-52.15793585 20.96448641 -50.3590146 19.1583499 -48.56188965 17.35042953 C-46.05109643 14.82514225 -43.53413805 12.30615913 -41.015625 9.78857422 C-40.27469604 9.04045471 -39.53376709 8.29233521 -38.77038574 7.52154541 C-27.65536044 -3.54916653 -14.66799209 -5.75927408 0 0 Z M-17.58843994 23.03788757 C-24.39477201 29.26343629 -30.95650375 35.73472357 -37.50390625 42.23046875 C-38.13770643 42.85894526 -38.77150661 43.48742176 -39.42451286 44.13494301 C-42.76575955 47.44965273 -46.10345541 50.7678956 -49.4387207 54.08862305 C-52.19714755 56.83361693 -54.96270196 59.57112069 -57.73461914 62.30249023 C-61.09407434 65.61282958 -64.4412771 68.93508855 -67.77982903 72.26650429 C-69.0519172 73.53186277 -70.32826965 74.792949 -71.60888863 76.04967308 C-73.38987112 77.79924823 -75.15465361 79.56371083 -76.91625977 81.33276367 C-77.44962952 81.84972809 -77.98299927 82.3666925 -78.53253174 82.89932251 C-80.15196343 84.48818099 -80.15196343 84.48818099 -82 87 C-81.92050872 91.30188477 -78.66276575 93.75293317 -75.7578125 96.60546875 C-75.23363739 97.13014236 -74.70946228 97.65481598 -74.16940308 98.19538879 C-73.06167552 99.30077972 -71.95026275 100.40248827 -70.83544922 101.50073242 C-69.12938558 103.18317514 -67.43705873 104.87856892 -65.74609375 106.57617188 C-64.66745701 107.64923253 -63.58805524 108.72152486 -62.5078125 109.79296875 C-62.00146271 110.30022995 -61.49511292 110.80749115 -60.97341919 111.3301239 C-58.64879691 113.60829692 -57.13436624 114.95521125 -54 116 C-54 115.34 -54 114.68 -54 114 C-53.12988281 113.89945313 -53.12988281 113.89945313 -52.2421875 113.796875 C-49.12281831 112.68824902 -48.07369757 110.89521999 -46.125 108.25 C-43.76354342 105.15445766 -41.5641082 102.4106254 -38.5 100 C-37.675 99.34 -36.85 98.68 -36 98 C-36 97.34 -36 96.68 -36 96 C-35.34 96 -34.68 96 -34 96 C-34 95.34 -34 94.68 -34 94 C-33.4225 93.773125 -32.845 93.54625 -32.25 93.3125 C-29.41565264 91.6591307 -28.03237811 89.57036056 -26 87 C-24.01739574 85.31267723 -22.0167658 83.64633943 -20 82 C-17.35491029 79.48393905 -14.97653101 76.97082234 -12.6875 74.125 C-10.01531015 70.81902154 -6.85168386 68.20544849 -3.57421875 65.515625 C-3.05472656 65.01546875 -2.53523438 64.5153125 -2 64 C-2 63.34 -2 62.68 -2 62 C-1.4225 61.773125 -0.845 61.54625 -0.25 61.3125 C2.57914534 59.66216522 3.98274596 57.56741423 6 55 C6.9075 54.34 7.815 53.68 8.75 53 C11.19149752 51.23625418 11.19149752 51.23625418 11.4453125 48.73046875 C10.82687418 44.93846537 8.73189831 42.94837826 6.125 40.3125 C5.6297583 39.79574707 5.1345166 39.27899414 4.62426758 38.74658203 C3.59737604 37.67966051 2.56483446 36.61814967 1.52685547 35.56201172 C0.08066108 34.08251832 -1.33550367 32.57977157 -2.74609375 31.06640625 C-3.59300781 30.17824219 -4.43992187 29.29007813 -5.3125 28.375 C-6.07175781 27.57835937 -6.83101563 26.78171875 -7.61328125 25.9609375 C-12.17829219 21.98227155 -12.17829219 21.98227155 -17.58843994 23.03788757 Z " fill="#F9F9F9" transform="translate(410,212)"/>
<path d="M0 0 C1.56091166 -0.10911227 3.12408492 -0.18609398 4.6875 -0.25 C5.55761719 -0.29640625 6.42773438 -0.3428125 7.32421875 -0.390625 C10.98834834 0.14428443 12.44040477 1.33802096 15 4 C16.1200397 6.45314608 16.99842341 8.70347242 17.8125 11.25 C19.89946639 17.2623845 22.27432337 22.99544315 25.125 28.6875 C25.44960205 29.34588867 25.7742041 30.00427734 26.10864258 30.68261719 C28.04699834 34.49535658 30.22037493 37.75516571 33 41 C36 44.75 36 44.75 36 47 C36.66 47 37.32 47 38 47 C38.0825 47.61875 38.165 48.2375 38.25 48.875 C38.79394438 51.17972859 38.79394438 51.17972859 41 52.0625 C41.66 52.371875 42.32 52.68125 43 53 C43.33 53.99 43.66 54.98 44 56 C44.66 56 45.32 56 46 56 C46 56.66 46 57.32 46 58 C46.54140625 58.24492188 47.0828125 58.48984375 47.640625 58.7421875 C50.54910859 60.2927367 53.08553187 62.18413108 55.75 64.125 C66.12169019 71.46267277 77.49501167 76.71088248 89.42578125 80.9921875 C92 82 92 82 95 84 C96.21666102 87.64998306 96.75501773 91.21798457 96 95 C92.84128196 100.58244352 87.93605352 102.03650782 82.25 104.25 C51.1808364 116.96401224 33.15661389 135.58180385 19 166 C17.55338477 169.47293467 16.28298843 172.98212794 15.16015625 176.57421875 C13.66173066 179.70729043 11.88119298 181.10527883 9 183 C5.5 183.5625 5.5 183.5625 2 183 C-2.65491596 179.29722594 -5.46868422 175.2887449 -6.8125 169.5 C-10.75761475 152.51055424 -22.49248409 136.7750938 -35 125 C-35.99 124.67 -36.98 124.34 -38 124 C-38 123.34 -38 122.68 -38 122 C-38.66 122 -39.32 122 -40 122 C-40.391875 121.5875 -40.78375 121.175 -41.1875 120.75 C-43.34683655 118.66512333 -45.6383065 117.45352289 -48.28125 116.0625 C-50 115 -50 115 -51.359375 113.55078125 C-53.58903955 111.44321738 -55.95616394 110.44889613 -58.75 109.1875 C-60.47283203 108.40632813 -60.47283203 108.40632813 -62.23046875 107.609375 C-64.81235451 106.48308103 -67.41438812 105.4448479 -70.05078125 104.453125 C-70.71948242 104.19893799 -71.38818359 103.94475098 -72.07714844 103.68286133 C-73.97439598 102.97057693 -75.87962915 102.27967255 -77.78515625 101.58984375 C-81.33716011 99.83326347 -82.92668608 98.35194241 -85 95 C-85.75245434 91.5756951 -85.42760798 88.20173781 -84.24682617 84.88330078 C-82.65572377 82.47997909 -81.34956354 81.95935646 -78.67578125 80.9296875 C-77.81146484 80.59066406 -76.94714844 80.25164062 -76.05664062 79.90234375 C-75.15107422 79.56332031 -74.24550781 79.22429687 -73.3125 78.875 C-72.42626953 78.52824219 -71.54003906 78.18148437 -70.62695312 77.82421875 C-65.80393442 75.96069857 -60.99719026 74.32620371 -56 73 C-56 72.34 -56 71.68 -56 71 C-55.04738281 70.48050781 -54.09476562 69.96101563 -53.11328125 69.42578125 C-51.84610841 68.72179634 -50.57919502 68.01734428 -49.3125 67.3125 C-48.68666016 66.97283203 -48.06082031 66.63316406 -47.41601562 66.28320312 C-43.30350348 63.97933506 -40.30933857 61.40474293 -37 58 C-36.34 58 -35.68 58 -35 58 C-35 57.34 -35 56.68 -35 56 C-34.34 56 -33.68 56 -33 56 C-32.78472656 55.47664063 -32.56945312 54.95328125 -32.34765625 54.4140625 C-30.45963604 51.03204369 -27.9754736 48.2866829 -25.4375 45.375 C-21.85426322 41.44179069 -21.85426322 41.44179069 -19 37 C-18.34 37 -17.68 37 -17 37 C-16.72671875 36.29488281 -16.4534375 35.58976562 -16.171875 34.86328125 C-14.96502369 31.91454123 -13.62290152 29.06247387 -12.25 26.1875 C-8.72555003 18.61774539 -5.84074083 10.84729469 -3 3 C-2.34 3 -1.68 3 -1 3 C-0.67 2.01 -0.34 1.02 0 0 Z " fill="#FBFBFB" transform="translate(523,36)"/>
<path d="M0 0 C3.29399115 0.45211643 4.77509568 1.08879831 6.98046875 3.57421875 C9.11401508 6.86775143 10.37847359 10.53156913 11.80859375 14.171875 C20.86424539 35.61812081 36.6605048 45.94978207 57.515625 54.61328125 C59.1875 55.4375 59.1875 55.4375 61.1875 57.4375 C61.8669621 63.55265892 61.8669621 63.55265892 59.63671875 66.45703125 C56.56015079 68.94478237 53.2622033 70.30177913 49.625 71.75 C31.85686976 79.19991598 18.9216015 90.75553466 11.28515625 108.67578125 C10.24220297 111.26316051 9.28803912 113.86129087 8.34375 116.48828125 C7.1875 119.4375 7.1875 119.4375 5.1875 121.4375 C1.875 122.375 1.875 122.375 -1.8125 122.4375 C-6.19124033 118.94124426 -8.07744591 115.1099491 -9.875 109.9375 C-11.5750258 105.1279032 -13.42711587 101.32032833 -16.8125 97.4375 C-17.328125 96.57125 -17.84375 95.705 -18.375 94.8125 C-19.69128186 92.42439982 -19.69128186 92.42439982 -21.5 90.75 C-21.933125 90.316875 -22.36625 89.88375 -22.8125 89.4375 C-22.8125 88.7775 -22.8125 88.1175 -22.8125 87.4375 C-23.8025 87.1075 -24.7925 86.7775 -25.8125 86.4375 C-26.4725 85.73625 -27.1325 85.035 -27.8125 84.3125 C-34.42860366 77.5202279 -42.9933178 73.65276599 -51.77294922 70.47875977 C-57.6817289 68.30327576 -57.6817289 68.30327576 -59.8125 65.4375 C-60.75 62.5625 -60.75 62.5625 -60.8125 59.4375 C-57.79703799 54.49744079 -54.22412483 52.95076023 -49.0625 50.9375 C-43.24056609 48.54660654 -38.07929258 45.9135831 -32.8125 42.4375 C-32.1525 42.4375 -31.4925 42.4375 -30.8125 42.4375 C-30.8125 41.7775 -30.8125 41.1175 -30.8125 40.4375 C-29.2734375 38.95703125 -29.2734375 38.95703125 -27.1875 37.25 C-18.79883933 30.00926131 -14.52170843 22.37792853 -9.78808594 12.47705078 C-8.76322238 10.33448067 -7.73681206 8.19313794 -6.6953125 6.05859375 C-6.22569092 5.08877563 -6.22569092 5.08877563 -5.74658203 4.09936523 C-4.15554106 1.26867629 -3.24135593 0.50421092 0 0 Z " fill="#F8F8F8" transform="translate(498.8125,293.5625)"/>
<path d="M0 0 C2.05078125 0.03255208 4.1015625 0.06510417 6.15234375 0.09765625 C6.37148438 0.70351562 6.590625 1.309375 6.81640625 1.93359375 C10.07145876 10.53434224 13.98033236 19.08867373 21.15234375 25.09765625 C22.14234375 25.42765625 23.13234375 25.75765625 24.15234375 26.09765625 C24.57257812 26.5565625 24.9928125 27.01546875 25.42578125 27.48828125 C28.6673994 30.50988007 33.22616524 31.6359453 37.31640625 33.20703125 C40.15234375 35.09765625 40.15234375 35.09765625 41.23828125 38.61328125 C41.15234375 42.09765625 41.15234375 42.09765625 40.0078125 43.921875 C37.87944363 45.27058875 35.84842673 46.09068267 33.46484375 46.91015625 C20.82937856 51.77701421 13.73064505 61.16173215 8.15234375 73.09765625 C5.48567708 77.76432292 5.48567708 77.76432292 4.15234375 79.09765625 C1.78125 79.41015625 1.78125 79.41015625 -0.84765625 79.09765625 C-2.5078125 77.41015625 -2.5078125 77.41015625 -3.91015625 75.09765625 C-4.67392578 73.86015625 -4.67392578 73.86015625 -5.453125 72.59765625 C-6.64616074 70.45888069 -7.70445043 68.32245839 -8.72265625 66.09765625 C-14.70704308 53.83576976 -25.51597424 48.4365814 -37.84765625 44.09765625 C-38.84765625 43.09765625 -38.84765625 43.09765625 -38.91015625 39.53515625 C-38.88953125 38.40078125 -38.86890625 37.26640625 -38.84765625 36.09765625 C-33.84952356 32.97382332 -29.61597741 31.31203965 -23.84765625 30.09765625 C-23.84765625 29.43765625 -23.84765625 28.77765625 -23.84765625 28.09765625 C-19.46304087 25.09765625 -19.46304087 25.09765625 -16.84765625 25.09765625 C-16.84765625 24.43765625 -16.84765625 23.77765625 -16.84765625 23.09765625 C-16.12578125 22.56140625 -15.40390625 22.02515625 -14.66015625 21.47265625 C-8.88236367 16.59363141 -6.24037137 10.0699038 -3.64453125 3.1015625 C-2.4629272 0.13017586 -2.4629272 0.13017586 0 0 Z " fill="#F3F3F3" transform="translate(588.84765625,223.90234375)"/>
<path d="M0 0 C0.66 0 1.32 0 2 0 C0.55746343 3.36591866 -1.33264727 5.51047079 -4 8 C-4.66 7.67 -5.32 7.34 -6 7 C-5.04882866 5.8274869 -4.08882991 4.66212985 -3.125 3.5 C-2.59132813 2.8503125 -2.05765625 2.200625 -1.5078125 1.53125 C-0.76144531 0.77328125 -0.76144531 0.77328125 0 0 Z " fill="#BCBCBC" transform="translate(416,266)"/>
</svg>
